<?xml version="1.0" standalone="no"?>
<!DOCTYPE svg PUBLIC "-//W3C//DTD SVG 20010904//EN"
 "http://www.w3.org/TR/2001/REC-SVG-20010904/DTD/svg10.dtd">
<svg version="1.0" xmlns="http://www.w3.org/2000/svg"
 width="260.000000pt" height="260.000000pt" viewBox="0 0 260.000000 260.000000"
 preserveAspectRatio="xMidYMid meet">
<metadata>
Created by potrace 1.11, written by Peter Selinger 2001-2013
</metadata>
<g transform="translate(0.000000,260.000000) scale(0.100000,-0.100000)"
fill="#000000" stroke="none">
<path d="M1126 2525 c9 -14 12 -25 8 -25 -5 0 -3 -4 3 -8 7 -5 14 -20 15 -35
1 -15 6 -27 10 -27 9 0 10 -16 9 -135 0 -120 -1 -124 -12 -130 -5 -4 -7 -11
-4 -16 4 -5 3 -15 -2 -21 -7 -12 -9 -18 -16 -52 -2 -8 -8 -20 -15 -28 -6 -8
-9 -18 -5 -21 3 -4 1 -7 -6 -7 -7 0 -10 -4 -7 -9 4 -5 3 -11 -1 -13 -5 -1 -19
-24 -32 -51 -13 -26 -34 -58 -46 -71 -13 -14 -20 -27 -18 -30 3 -3 -2 -8 -11
-12 -9 -3 -16 -10 -16 -14 0 -13 -68 -80 -81 -80 -7 0 -10 -3 -7 -6 9 -8 -93
-104 -110 -104 -9 0 -13 -2 -10 -5 3 -3 -39 -48 -92 -100 -54 -52 -96 -95 -94
-95 3 0 0 -9 -6 -20 -6 -11 -18 -20 -26 -20 -9 0 -14 -6 -12 -12 3 -7 -3 -21
-12 -31 -10 -10 -26 -35 -36 -55 -11 -20 -22 -39 -27 -40 -4 -2 -5 -8 -1 -13
3 -5 1 -9 -4 -9 -5 0 -9 -6 -10 -12 -1 -15 -10 -53 -12 -53 -3 0 -11 -39 -12
-55 0 -8 -4 -19 -8 -25 -9 -12 -11 -265 -3 -278 3 -6 7 -27 8 -48 1 -22 9 -47
16 -56 11 -14 12 -15 1 -9 -12 7 -12 5 -1 -15 7 -13 14 -27 15 -31 1 -5 3 -11
4 -15 1 -5 2 -11 1 -16 0 -4 3 -7 9 -7 6 0 9 -3 8 -8 -1 -4 3 -17 10 -29 7
-13 10 -23 7 -23 -10 0 42 -93 89 -160 26 -36 54 -76 63 -90 16 -26 86 -82 99
-80 4 1 11 -4 16 -12 10 -14 3 16 -14 62 -5 14 -9 26 -9 27 0 2 -5 17 -10 35
-15 54 -22 91 -23 131 0 20 -3 37 -7 37 -6 0 -4 30 6 125 6 59 6 62 30 140 29
99 90 211 154 285 l22 24 -6 -39 c-9 -57 -9 -94 -2 -145 4 -25 9 -56 11 -70 1
-14 5 -32 9 -40 3 -8 8 -28 12 -45 4 -16 15 -48 26 -72 10 -23 19 -46 19 -52
0 -5 6 -16 13 -23 6 -7 21 -30 32 -52 11 -21 26 -40 33 -43 6 -3 12 -11 12
-19 0 -7 6 -17 13 -21 35 -23 145 -227 149 -279 1 -13 5 -24 8 -24 3 0 5 -13
4 -30 -1 -16 2 -30 6 -30 5 0 14 -16 20 -35 10 -29 14 -33 33 -26 12 4 39 9
59 9 66 2 258 57 258 74 0 4 3 7 8 6 11 -2 45 13 65 30 9 8 17 12 17 8 0 -7
41 24 95 71 11 10 23 18 27 18 8 0 68 63 68 71 0 4 8 14 19 23 31 27 140 217
132 230 -2 2 2 7 7 10 13 8 37 82 52 158 14 69 10 299 -5 323 -5 8 -10 21 -10
30 -2 25 -29 90 -37 90 -4 0 -5 6 -2 14 3 7 -2 21 -11 30 -9 9 -14 16 -10 16
4 0 0 7 -9 15 -21 21 -23 19 -18 -16 7 -51 -27 -149 -67 -193 -46 -49 -118
-96 -148 -96 -13 0 -23 -3 -23 -7 0 -5 -18 -8 -40 -9 -22 0 -40 2 -40 6 0 3
-12 7 -27 8 -15 1 -30 8 -35 15 -4 6 -8 9 -8 4 0 -14 -74 32 -110 68 -19 19
-30 35 -25 35 6 0 4 4 -4 9 -19 12 -29 151 -11 151 8 0 11 3 7 6 -10 10 16 68
65 143 26 40 53 92 60 115 7 22 14 43 18 46 3 3 6 12 7 20 1 8 5 26 8 40 10
38 13 244 4 255 -4 6 -8 20 -8 30 1 11 -2 31 -6 45 -4 14 -8 33 -8 43 -1 9 -5
17 -10 17 -4 0 -6 4 -2 9 3 5 0 13 -6 16 -5 4 -8 13 -5 21 3 8 1 14 -4 14 -5
0 -13 12 -17 28 -10 40 -80 173 -109 207 -56 67 -143 152 -148 147 -3 -3 -6
-1 -6 5 0 16 -153 113 -178 113 -22 0 -22 -1 -6 -25z"/>
</g>
</svg>
